<svg xmlns="http://www.w3.org/2000/svg" viewBox="0 0 1200 630" width="1200" height="630" preserveAspectRatio="xMidYMid slice">
  <defs>
    <linearGradient id="bg-sakura-310594790" x1="0%" y1="0%" x2="100%" y2="100%">
      <stop offset="0%" stop-color="#1E3A8A"/>
      <stop offset="100%" stop-color="#0A1840"/>
    </linearGradient>
  </defs>
  <rect width="1200" height="630" fill="url(#bg-sakura-310594790)"/>
  <circle cx="280" cy="-5" r="14.9" fill="#FFB7C5" opacity="0.40"/><circle cx="360" cy="-5" r="14.3" fill="#FFB7C5" opacity="0.40"/><circle cx="440" cy="-5" r="14.6" fill="#FFB7C5" opacity="0.40"/><circle cx="520" cy="-5" r="14.1" fill="#FFB7C5" opacity="0.40"/><circle cx="600" cy="-5" r="14.7" fill="#FFB7C5" opacity="0.40"/><circle cx="680" cy="-5" r="14.0" fill="#FFB7C5" opacity="0.40"/><circle cx="760" cy="-5" r="14.5" fill="#FFB7C5" opacity="0.40"/><circle cx="840" cy="-5" r="14.4" fill="#FFB7C5" opacity="0.40"/><circle cx="920" cy="-5" r="14.6" fill="#FFB7C5" opacity="0.40"/><circle cx="280" cy="75" r="13.7" fill="#FFB7C5" opacity="0.37"/><circle cx="360" cy="75" r="13.4" fill="#FFB7C5" opacity="0.37"/><circle cx="440" cy="75" r="13.4" fill="#FFB7C5" opacity="0.37"/><circle cx="520" cy="75" r="14.1" fill="#FFB7C5" opacity="0.37"/><circle cx="600" cy="75" r="13.9" fill="#FFB7C5" opacity="0.37"/><circle cx="680" cy="75" r="13.9" fill="#FFB7C5" opacity="0.37"/><circle cx="760" cy="75" r="13.4" fill="#FFB7C5" opacity="0.37"/><circle cx="840" cy="75" r="13.6" fill="#FFB7C5" opacity="0.37"/><circle cx="920" cy="75" r="13.5" fill="#FFB7C5" opacity="0.37"/><circle cx="280" cy="155" r="13.2" fill="#FFB7C5" opacity="0.34"/><circle cx="360" cy="155" r="12.4" fill="#FFB7C5" opacity="0.34"/><circle cx="440" cy="155" r="13.0" fill="#FFB7C5" opacity="0.34"/><circle cx="520" cy="155" r="13.2" fill="#FFB7C5" opacity="0.34"/><circle cx="600" cy="155" r="13.2" fill="#FFB7C5" opacity="0.34"/><circle cx="680" cy="155" r="13.1" fill="#FFB7C5" opacity="0.34"/><circle cx="760" cy="155" r="13.1" fill="#FFB7C5" opacity="0.34"/><circle cx="840" cy="155" r="13.3" fill="#FFB7C5" opacity="0.34"/><circle cx="920" cy="155" r="12.9" fill="#FFB7C5" opacity="0.34"/><circle cx="280" cy="235" r="11.8" fill="#FFB7C5" opacity="0.31"/><circle cx="360" cy="235" r="12.3" fill="#FFB7C5" opacity="0.31"/><circle cx="440" cy="235" r="11.8" fill="#FFB7C5" opacity="0.31"/><circle cx="520" cy="235" r="12.3" fill="#FFB7C5" opacity="0.31"/><circle cx="600" cy="235" r="11.8" fill="#FFB7C5" opacity="0.31"/><circle cx="680" cy="235" r="11.7" fill="#FFB7C5" opacity="0.31"/><circle cx="760" cy="235" r="12.1" fill="#FFB7C5" opacity="0.31"/><circle cx="840" cy="235" r="12.5" fill="#FFB7C5" opacity="0.31"/><circle cx="920" cy="235" r="12.0" fill="#FFB7C5" opacity="0.31"/><circle cx="280" cy="315" r="11.6" fill="#FFB7C5" opacity="0.28"/><circle cx="360" cy="315" r="11.0" fill="#FFB7C5" opacity="0.28"/><circle cx="440" cy="315" r="11.6" fill="#FFB7C5" opacity="0.28"/><circle cx="520" cy="315" r="11.4" fill="#FFB7C5" opacity="0.28"/><circle cx="600" cy="315" r="10.9" fill="#FFB7C5" opacity="0.28"/><circle cx="680" cy="315" r="11.0" fill="#FFB7C5" opacity="0.28"/><circle cx="760" cy="315" r="11.0" fill="#FFB7C5" opacity="0.28"/><circle cx="840" cy="315" r="10.9" fill="#FFB7C5" opacity="0.28"/><circle cx="920" cy="315" r="11.4" fill="#FFB7C5" opacity="0.28"/><circle cx="280" cy="395" r="12.3" fill="#FFB7C5" opacity="0.31"/><circle cx="360" cy="395" r="12.1" fill="#FFB7C5" opacity="0.31"/><circle cx="440" cy="395" r="12.2" fill="#FFB7C5" opacity="0.31"/><circle cx="520" cy="395" r="11.9" fill="#FFB7C5" opacity="0.31"/><circle cx="600" cy="395" r="12.5" fill="#FFB7C5" opacity="0.31"/><circle cx="680" cy="395" r="11.9" fill="#FFB7C5" opacity="0.31"/><circle cx="760" cy="395" r="12.5" fill="#FFB7C5" opacity="0.31"/><circle cx="840" cy="395" r="12.4" fill="#FFB7C5" opacity="0.31"/><circle cx="920" cy="395" r="11.8" fill="#FFB7C5" opacity="0.31"/><circle cx="280" cy="475" r="12.7" fill="#FFB7C5" opacity="0.34"/><circle cx="360" cy="475" r="13.0" fill="#FFB7C5" opacity="0.34"/><circle cx="440" cy="475" r="12.6" fill="#FFB7C5" opacity="0.34"/><circle cx="520" cy="475" r="13.2" fill="#FFB7C5" opacity="0.34"/><circle cx="600" cy="475" r="12.5" fill="#FFB7C5" opacity="0.34"/><circle cx="680" cy="475" r="12.6" fill="#FFB7C5" opacity="0.34"/><circle cx="760" cy="475" r="12.8" fill="#FFB7C5" opacity="0.34"/><circle cx="840" cy="475" r="12.8" fill="#FFB7C5" opacity="0.34"/><circle cx="920" cy="475" r="13.2" fill="#FFB7C5" opacity="0.34"/><circle cx="280" cy="555" r="13.8" fill="#FFB7C5" opacity="0.37"/><circle cx="360" cy="555" r="14.2" fill="#FFB7C5" opacity="0.37"/><circle cx="440" cy="555" r="13.7" fill="#FFB7C5" opacity="0.37"/><circle cx="520" cy="555" r="13.4" fill="#FFB7C5" opacity="0.37"/><circle cx="600" cy="555" r="13.5" fill="#FFB7C5" opacity="0.37"/><circle cx="680" cy="555" r="13.7" fill="#FFB7C5" opacity="0.37"/><circle cx="760" cy="555" r="13.2" fill="#FFB7C5" opacity="0.37"/><circle cx="840" cy="555" r="13.6" fill="#FFB7C5" opacity="0.37"/><circle cx="920" cy="555" r="13.5" fill="#FFB7C5" opacity="0.37"/><circle cx="280" cy="635" r="14.2" fill="#FFB7C5" opacity="0.40"/><circle cx="360" cy="635" r="14.2" fill="#FFB7C5" opacity="0.40"/><circle cx="440" cy="635" r="14.5" fill="#FFB7C5" opacity="0.40"/><circle cx="520" cy="635" r="14.9" fill="#FFB7C5" opacity="0.40"/><circle cx="600" cy="635" r="14.3" fill="#FFB7C5" opacity="0.40"/><circle cx="680" cy="635" r="14.9" fill="#FFB7C5" opacity="0.40"/><circle cx="760" cy="635" r="14.2" fill="#FFB7C5" opacity="0.40"/><circle cx="840" cy="635" r="14.0" fill="#FFB7C5" opacity="0.40"/><circle cx="920" cy="635" r="14.2" fill="#FFB7C5" opacity="0.40"/>
  <text x="60" y="80" font-family="Georgia, 'Times New Roman', serif" font-size="32" fill="#FFB7C5" opacity="0.9">☆</text>
  <text x="1140" y="590" text-anchor="end" font-family="Georgia, 'Times New Roman', serif" font-size="20" fill="#FFD1DC" opacity="0.5" letter-spacing="2">----</text>
  <circle cx="1140" cy="80" r="6" fill="#FFB7C5" opacity="0.6"/>
</svg>