<svg xmlns="http://www.w3.org/2000/svg" viewBox="0 0 1200 630" width="1200" height="630" preserveAspectRatio="xMidYMid slice">
  <defs>
    <linearGradient id="bg-sakura-514306234" x1="0%" y1="0%" x2="100%" y2="100%">
      <stop offset="0%" stop-color="#1E3A8A"/>
      <stop offset="100%" stop-color="#0A1840"/>
    </linearGradient>
  </defs>
  <rect width="1200" height="630" fill="url(#bg-sakura-514306234)"/>
  <circle cx="280.0" cy="-5.0" r="11.3" fill="#FFB7C5" opacity="0.28"/><circle cx="360.0" cy="-5.0" r="13.0" fill="#FFB7C5" opacity="0.31"/><circle cx="440.0" cy="-5.0" r="14.4" fill="#FFB7C5" opacity="0.34"/><circle cx="520.0" cy="-5.0" r="15.3" fill="#FFB7C5" opacity="0.36"/><circle cx="600.0" cy="-5.0" r="15.6" fill="#FFB7C5" opacity="0.36"/><circle cx="680.0" cy="-5.0" r="15.3" fill="#FFB7C5" opacity="0.36"/><circle cx="760.0" cy="-5.0" r="14.4" fill="#FFB7C5" opacity="0.34"/><circle cx="840.0" cy="-5.0" r="13.0" fill="#FFB7C5" opacity="0.31"/><circle cx="920.0" cy="-5.0" r="11.3" fill="#FFB7C5" opacity="0.28"/><circle cx="280.0" cy="75.0" r="13.0" fill="#FFB7C5" opacity="0.31"/><circle cx="360.0" cy="75.0" r="15.0" fill="#FFB7C5" opacity="0.35"/><circle cx="440.0" cy="75.0" r="16.6" fill="#FFB7C5" opacity="0.38"/><circle cx="520.0" cy="75.0" r="17.8" fill="#FFB7C5" opacity="0.40"/><circle cx="600.0" cy="75.0" r="18.2" fill="#FFB7C5" opacity="0.41"/><circle cx="680.0" cy="75.0" r="17.8" fill="#FFB7C5" opacity="0.40"/><circle cx="760.0" cy="75.0" r="16.6" fill="#FFB7C5" opacity="0.38"/><circle cx="840.0" cy="75.0" r="15.0" fill="#FFB7C5" opacity="0.35"/><circle cx="920.0" cy="75.0" r="13.0" fill="#FFB7C5" opacity="0.31"/><circle cx="280.0" cy="155.0" r="14.4" fill="#FFB7C5" opacity="0.34"/><circle cx="360.0" cy="155.0" r="16.6" fill="#FFB7C5" opacity="0.38"/><circle cx="440.0" cy="155.0" r="18.7" fill="#FFB7C5" opacity="0.42"/><circle cx="520.0" cy="155.0" r="20.2" fill="#FFB7C5" opacity="0.44"/><circle cx="600.0" cy="155.0" r="20.8" fill="#FFB7C5" opacity="0.46"/><circle cx="680.0" cy="155.0" r="20.2" fill="#FFB7C5" opacity="0.44"/><circle cx="760.0" cy="155.0" r="18.7" fill="#FFB7C5" opacity="0.42"/><circle cx="840.0" cy="155.0" r="16.6" fill="#FFB7C5" opacity="0.38"/><circle cx="920.0" cy="155.0" r="14.4" fill="#FFB7C5" opacity="0.34"/><circle cx="280.0" cy="235.0" r="15.3" fill="#FFB7C5" opacity="0.36"/><circle cx="360.0" cy="235.0" r="17.8" fill="#FFB7C5" opacity="0.40"/><circle cx="440.0" cy="235.0" r="20.2" fill="#FFB7C5" opacity="0.44"/><circle cx="520.0" cy="235.0" r="22.3" fill="#FFB7C5" opacity="0.48"/><circle cx="600.0" cy="235.0" r="23.4" fill="#FFB7C5" opacity="0.50"/><circle cx="680.0" cy="235.0" r="22.3" fill="#FFB7C5" opacity="0.48"/><circle cx="760.0" cy="235.0" r="20.2" fill="#FFB7C5" opacity="0.44"/><circle cx="840.0" cy="235.0" r="17.8" fill="#FFB7C5" opacity="0.40"/><circle cx="920.0" cy="235.0" r="15.3" fill="#FFB7C5" opacity="0.36"/><circle cx="280.0" cy="315.0" r="15.6" fill="#FFB7C5" opacity="0.36"/><circle cx="360.0" cy="315.0" r="18.2" fill="#FFB7C5" opacity="0.41"/><circle cx="440.0" cy="315.0" r="20.8" fill="#FFB7C5" opacity="0.46"/><circle cx="520.0" cy="315.0" r="23.4" fill="#FFB7C5" opacity="0.50"/><circle cx="600.0" cy="315.0" r="26.0" fill="#FFB7C5" opacity="0.55"/><circle cx="680.0" cy="315.0" r="23.4" fill="#FFB7C5" opacity="0.50"/><circle cx="760.0" cy="315.0" r="20.8" fill="#FFB7C5" opacity="0.46"/><circle cx="840.0" cy="315.0" r="18.2" fill="#FFB7C5" opacity="0.41"/><circle cx="920.0" cy="315.0" r="15.6" fill="#FFB7C5" opacity="0.36"/><circle cx="280.0" cy="395.0" r="15.3" fill="#FFB7C5" opacity="0.36"/><circle cx="360.0" cy="395.0" r="17.8" fill="#FFB7C5" opacity="0.40"/><circle cx="440.0" cy="395.0" r="20.2" fill="#FFB7C5" opacity="0.44"/><circle cx="520.0" cy="395.0" r="22.3" fill="#FFB7C5" opacity="0.48"/><circle cx="600.0" cy="395.0" r="23.4" fill="#FFB7C5" opacity="0.50"/><circle cx="680.0" cy="395.0" r="22.3" fill="#FFB7C5" opacity="0.48"/><circle cx="760.0" cy="395.0" r="20.2" fill="#FFB7C5" opacity="0.44"/><circle cx="840.0" cy="395.0" r="17.8" fill="#FFB7C5" opacity="0.40"/><circle cx="920.0" cy="395.0" r="15.3" fill="#FFB7C5" opacity="0.36"/><circle cx="280.0" cy="475.0" r="14.4" fill="#FFB7C5" opacity="0.34"/><circle cx="360.0" cy="475.0" r="16.6" fill="#FFB7C5" opacity="0.38"/><circle cx="440.0" cy="475.0" r="18.7" fill="#FFB7C5" opacity="0.42"/><circle cx="520.0" cy="475.0" r="20.2" fill="#FFB7C5" opacity="0.44"/><circle cx="600.0" cy="475.0" r="20.8" fill="#FFB7C5" opacity="0.46"/><circle cx="680.0" cy="475.0" r="20.2" fill="#FFB7C5" opacity="0.44"/><circle cx="760.0" cy="475.0" r="18.7" fill="#FFB7C5" opacity="0.42"/><circle cx="840.0" cy="475.0" r="16.6" fill="#FFB7C5" opacity="0.38"/><circle cx="920.0" cy="475.0" r="14.4" fill="#FFB7C5" opacity="0.34"/><circle cx="280.0" cy="555.0" r="13.0" fill="#FFB7C5" opacity="0.31"/><circle cx="360.0" cy="555.0" r="15.0" fill="#FFB7C5" opacity="0.35"/><circle cx="440.0" cy="555.0" r="16.6" fill="#FFB7C5" opacity="0.38"/><circle cx="520.0" cy="555.0" r="17.8" fill="#FFB7C5" opacity="0.40"/><circle cx="600.0" cy="555.0" r="18.2" fill="#FFB7C5" opacity="0.41"/><circle cx="680.0" cy="555.0" r="17.8" fill="#FFB7C5" opacity="0.40"/><circle cx="760.0" cy="555.0" r="16.6" fill="#FFB7C5" opacity="0.38"/><circle cx="840.0" cy="555.0" r="15.0" fill="#FFB7C5" opacity="0.35"/><circle cx="920.0" cy="555.0" r="13.0" fill="#FFB7C5" opacity="0.31"/><circle cx="280.0" cy="635.0" r="11.3" fill="#FFB7C5" opacity="0.28"/><circle cx="360.0" cy="635.0" r="13.0" fill="#FFB7C5" opacity="0.31"/><circle cx="440.0" cy="635.0" r="14.4" fill="#FFB7C5" opacity="0.34"/><circle cx="520.0" cy="635.0" r="15.3" fill="#FFB7C5" opacity="0.36"/><circle cx="600.0" cy="635.0" r="15.6" fill="#FFB7C5" opacity="0.36"/><circle cx="680.0" cy="635.0" r="15.3" fill="#FFB7C5" opacity="0.36"/><circle cx="760.0" cy="635.0" r="14.4" fill="#FFB7C5" opacity="0.34"/><circle cx="840.0" cy="635.0" r="13.0" fill="#FFB7C5" opacity="0.31"/><circle cx="920.0" cy="635.0" r="11.3" fill="#FFB7C5" opacity="0.28"/>
  <text x="60" y="80" font-family="Georgia, 'Times New Roman', serif" font-size="32" fill="#FFB7C5" opacity="0.9">△</text>
  <text x="1140" y="590" text-anchor="end" font-family="Georgia, 'Times New Roman', serif" font-size="20" fill="#FFD1DC" opacity="0.5" letter-spacing="2">----</text>
  <circle cx="1140" cy="80" r="6" fill="#FFB7C5" opacity="0.6"/>
</svg>
