<svg xmlns="http://www.w3.org/2000/svg" viewBox="0 0 1200 630" width="1200" height="630" preserveAspectRatio="xMidYMid slice">
  <defs>
    <linearGradient id="bg-sakura-1298727825" x1="0%" y1="0%" x2="100%" y2="100%">
      <stop offset="0%" stop-color="#1E3A8A"/>
      <stop offset="100%" stop-color="#0A1840"/>
    </linearGradient>
  </defs>
  <rect width="1200" height="630" fill="url(#bg-sakura-1298727825)"/>
  <circle cx="976.6" cy="160.9" r="6.3" fill="#FFB7C5" opacity="0.46"/><circle cx="276.1" cy="594.3" r="4.1" fill="#FFB7C5" opacity="0.56"/><circle cx="397.1" cy="298.8" r="4.5" fill="#FFD1DC" opacity="0.33"/><circle cx="751.5" cy="75.2" r="2.1" fill="#FFD1DC" opacity="0.30"/><circle cx="89.1" cy="241.3" r="5.8" fill="#FFB7C5" opacity="0.57"/><circle cx="797.6" cy="484.9" r="4.4" fill="#FFD1DC" opacity="0.22"/><circle cx="792.9" cy="469.0" r="3.9" fill="#FFD1DC" opacity="0.57"/><circle cx="616.0" cy="606.5" r="5.0" fill="#FFB7C5" opacity="0.53"/><circle cx="232.2" cy="294.3" r="5.7" fill="#FFD1DC" opacity="0.66"/><circle cx="1091.6" cy="494.5" r="7.0" fill="#FFB7C5" opacity="0.51"/><circle cx="1091.6" cy="272.1" r="4.1" fill="#FFB7C5" opacity="0.59"/><circle cx="121.4" cy="567.2" r="5.4" fill="#FFB7C5" opacity="0.29"/><circle cx="94.4" cy="371.9" r="3.7" fill="#FFB7C5" opacity="0.38"/><circle cx="55.7" cy="420.5" r="2.5" fill="#FFD1DC" opacity="0.24"/><circle cx="1179.5" cy="537.0" r="2.1" fill="#FFD1DC" opacity="0.44"/><circle cx="728.2" cy="163.5" r="2.9" fill="#FFD1DC" opacity="0.69"/><circle cx="266.5" cy="45.7" r="5.6" fill="#FFD1DC" opacity="0.55"/><circle cx="399.4" cy="38.4" r="7.4" fill="#FFB7C5" opacity="0.53"/><circle cx="819.6" cy="179.5" r="3.7" fill="#FFD1DC" opacity="0.68"/><circle cx="1180.1" cy="59.1" r="5.6" fill="#FFD1DC" opacity="0.26"/><circle cx="455.7" cy="7.1" r="2.7" fill="#FFB7C5" opacity="0.30"/><circle cx="1117.6" cy="556.3" r="3.3" fill="#FFB7C5" opacity="0.45"/><circle cx="655.7" cy="204.5" r="3.7" fill="#FFB7C5" opacity="0.44"/><circle cx="488.3" cy="62.6" r="4.1" fill="#FFB7C5" opacity="0.27"/><circle cx="1116.8" cy="106.9" r="4.8" fill="#FFD1DC" opacity="0.52"/><circle cx="1126.8" cy="36.3" r="3.3" fill="#FFB7C5" opacity="0.46"/><circle cx="893.4" cy="352.4" r="5.9" fill="#FFB7C5" opacity="0.40"/><circle cx="798.7" cy="488.6" r="3.2" fill="#FFB7C5" opacity="0.57"/><circle cx="293.2" cy="301.8" r="3.1" fill="#FFB7C5" opacity="0.36"/><circle cx="281.5" cy="234.2" r="4.7" fill="#FFD1DC" opacity="0.54"/><circle cx="0.9" cy="607.5" r="6.5" fill="#FFD1DC" opacity="0.25"/><circle cx="112.6" cy="97.8" r="5.7" fill="#FFD1DC" opacity="0.28"/><circle cx="763.7" cy="422.7" r="6.9" fill="#FFD1DC" opacity="0.60"/><circle cx="1090.5" cy="260.4" r="4.4" fill="#FFB7C5" opacity="0.35"/><circle cx="873.5" cy="410.7" r="2.5" fill="#FFB7C5" opacity="0.31"/><circle cx="1128.1" cy="432.3" r="3.5" fill="#FFB7C5" opacity="0.48"/><circle cx="885.5" cy="507.7" r="2.4" fill="#FFD1DC" opacity="0.21"/><circle cx="351.6" cy="497.5" r="4.4" fill="#FFB7C5" opacity="0.42"/><circle cx="1005.4" cy="547.3" r="3.7" fill="#FFB7C5" opacity="0.48"/><circle cx="372.8" cy="56.4" r="7.9" fill="#FFB7C5" opacity="0.65"/><circle cx="430.6" cy="448.1" r="4.3" fill="#FFB7C5" opacity="0.46"/><circle cx="1023.5" cy="51.5" r="4.8" fill="#FFD1DC" opacity="0.33"/><circle cx="1112.6" cy="239.4" r="6.4" fill="#FFD1DC" opacity="0.53"/><circle cx="94.7" cy="171.8" r="7.2" fill="#FFB7C5" opacity="0.66"/><circle cx="206.7" cy="376.8" r="3.9" fill="#FFB7C5" opacity="0.39"/><circle cx="553.2" cy="149.8" r="4.1" fill="#FFD1DC" opacity="0.55"/><circle cx="950.9" cy="399.4" r="6.5" fill="#FFB7C5" opacity="0.55"/><circle cx="480.6" cy="395.6" r="7.1" fill="#FFB7C5" opacity="0.32"/><circle cx="957.8" cy="232.2" r="4.2" fill="#FFB7C5" opacity="0.33"/><circle cx="978.1" cy="224.7" r="3.4" fill="#FFD1DC" opacity="0.27"/><circle cx="572.7" cy="215.8" r="6.9" fill="#FFB7C5" opacity="0.36"/><circle cx="872.0" cy="183.6" r="3.8" fill="#FFB7C5" opacity="0.64"/><circle cx="138.0" cy="241.0" r="3.4" fill="#FFD1DC" opacity="0.60"/><circle cx="22.0" cy="43.1" r="5.8" fill="#FFD1DC" opacity="0.59"/><circle cx="365.7" cy="235.4" r="3.1" fill="#FFB7C5" opacity="0.63"/><circle cx="545.2" cy="121.7" r="4.0" fill="#FFB7C5" opacity="0.37"/><circle cx="1051.6" cy="439.3" r="7.1" fill="#FFD1DC" opacity="0.27"/><circle cx="702.5" cy="604.9" r="4.4" fill="#FFB7C5" opacity="0.68"/><circle cx="718.5" cy="58.9" r="7.8" fill="#FFB7C5" opacity="0.40"/><circle cx="726.3" cy="613.9" r="2.3" fill="#FFB7C5" opacity="0.39"/><circle cx="1154.3" cy="29.3" r="4.7" fill="#FFB7C5" opacity="0.32"/><circle cx="469.6" cy="475.6" r="2.1" fill="#FFD1DC" opacity="0.41"/><circle cx="55.4" cy="345.3" r="5.6" fill="#FFD1DC" opacity="0.31"/><circle cx="207.8" cy="64.6" r="6.3" fill="#FFD1DC" opacity="0.69"/><circle cx="1008.5" cy="46.6" r="4.3" fill="#FFB7C5" opacity="0.42"/><circle cx="393.8" cy="121.7" r="5.3" fill="#FFD1DC" opacity="0.47"/><circle cx="1085.3" cy="81.2" r="2.2" fill="#FFB7C5" opacity="0.41"/><circle cx="38.0" cy="477.7" r="4.6" fill="#FFB7C5" opacity="0.31"/><circle cx="86.3" cy="371.1" r="6.9" fill="#FFD1DC" opacity="0.34"/><circle cx="822.7" cy="518.2" r="7.0" fill="#FFD1DC" opacity="0.22"/><circle cx="608.2" cy="382.6" r="4.1" fill="#FFD1DC" opacity="0.41"/><circle cx="649.5" cy="206.5" r="4.3" fill="#FFD1DC" opacity="0.67"/><circle cx="1114.8" cy="539.0" r="4.4" fill="#FFD1DC" opacity="0.56"/><circle cx="624.8" cy="93.2" r="7.5" fill="#FFD1DC" opacity="0.37"/><circle cx="922.0" cy="431.6" r="4.7" fill="#FFD1DC" opacity="0.34"/><circle cx="297.6" cy="361.6" r="3.3" fill="#FFB7C5" opacity="0.40"/><circle cx="556.7" cy="117.1" r="3.3" fill="#FFD1DC" opacity="0.22"/><circle cx="638.5" cy="531.4" r="6.9" fill="#FFB7C5" opacity="0.65"/><circle cx="775.5" cy="280.8" r="2.3" fill="#FFD1DC" opacity="0.40"/><circle cx="375.5" cy="514.8" r="2.4" fill="#FFB7C5" opacity="0.46"/><circle cx="720.3" cy="220.3" r="2.0" fill="#FFB7C5" opacity="0.22"/><circle cx="246.8" cy="619.8" r="7.5" fill="#FFD1DC" opacity="0.27"/><circle cx="908.9" cy="220.9" r="3.2" fill="#FFB7C5" opacity="0.44"/><circle cx="676.9" cy="442.2" r="7.1" fill="#FFD1DC" opacity="0.32"/><circle cx="92.3" cy="357.0" r="4.4" fill="#FFB7C5" opacity="0.62"/><circle cx="294.2" cy="310.3" r="7.2" fill="#FFD1DC" opacity="0.52"/><circle cx="727.4" cy="422.2" r="2.0" fill="#FFB7C5" opacity="0.52"/><circle cx="373.2" cy="239.6" r="3.5" fill="#FFB7C5" opacity="0.22"/><circle cx="387.9" cy="62.0" r="5.0" fill="#FFD1DC" opacity="0.53"/><circle cx="666.6" cy="167.0" r="5.5" fill="#FFB7C5" opacity="0.21"/><circle cx="150.8" cy="308.2" r="3.8" fill="#FFB7C5" opacity="0.64"/><circle cx="374.9" cy="117.8" r="6.7" fill="#FFB7C5" opacity="0.58"/><circle cx="710.7" cy="443.2" r="2.2" fill="#FFB7C5" opacity="0.61"/><circle cx="351.8" cy="420.2" r="6.2" fill="#FFD1DC" opacity="0.37"/><circle cx="582.9" cy="428.2" r="4.0" fill="#FFB7C5" opacity="0.57"/><circle cx="646.0" cy="85.6" r="8.0" fill="#FFD1DC" opacity="0.38"/><circle cx="1117.6" cy="298.3" r="3.2" fill="#FFB7C5" opacity="0.60"/><circle cx="899.1" cy="227.6" r="6.7" fill="#FFB7C5" opacity="0.25"/><circle cx="445.0" cy="300.7" r="7.5" fill="#FFD1DC" opacity="0.45"/><circle cx="739.1" cy="514.8" r="3.5" fill="#FFD1DC" opacity="0.20"/><circle cx="981.6" cy="512.5" r="5.9" fill="#FFD1DC" opacity="0.26"/><circle cx="98.2" cy="420.8" r="2.1" fill="#FFB7C5" opacity="0.34"/><circle cx="215.9" cy="351.7" r="4.9" fill="#FFD1DC" opacity="0.31"/><circle cx="121.9" cy="328.0" r="2.9" fill="#FFD1DC" opacity="0.54"/><circle cx="645.9" cy="368.5" r="3.6" fill="#FFD1DC" opacity="0.26"/><circle cx="194.4" cy="573.1" r="3.0" fill="#FFD1DC" opacity="0.59"/><circle cx="1024.3" cy="473.4" r="7.8" fill="#FFD1DC" opacity="0.61"/><circle cx="1161.5" cy="418.9" r="3.5" fill="#FFD1DC" opacity="0.45"/><circle cx="764.2" cy="424.4" r="6.9" fill="#FFD1DC" opacity="0.29"/><circle cx="60.1" cy="280.0" r="7.3" fill="#FFD1DC" opacity="0.33"/><circle cx="335.1" cy="491.2" r="4.9" fill="#FFD1DC" opacity="0.53"/><circle cx="1137.3" cy="542.9" r="6.2" fill="#FFD1DC" opacity="0.24"/><circle cx="19.9" cy="316.0" r="5.1" fill="#FFB7C5" opacity="0.69"/><circle cx="1040.4" cy="215.2" r="2.5" fill="#FFB7C5" opacity="0.43"/><circle cx="574.9" cy="422.5" r="3.9" fill="#FFD1DC" opacity="0.40"/><circle cx="749.7" cy="119.8" r="7.7" fill="#FFB7C5" opacity="0.57"/><circle cx="618.4" cy="155.3" r="3.2" fill="#FFB7C5" opacity="0.48"/><circle cx="93.3" cy="567.2" r="5.4" fill="#FFB7C5" opacity="0.33"/><circle cx="39.7" cy="457.2" r="5.5" fill="#FFD1DC" opacity="0.32"/><circle cx="495.0" cy="322.8" r="5.5" fill="#FFD1DC" opacity="0.41"/>
  <text x="60" y="80" font-family="Georgia, 'Times New Roman', serif" font-size="32" fill="#FFB7C5" opacity="0.9">○</text>
  <text x="1140" y="590" text-anchor="end" font-family="Georgia, 'Times New Roman', serif" font-size="20" fill="#FFD1DC" opacity="0.5" letter-spacing="2">----</text>
  <circle cx="1140" cy="80" r="6" fill="#FFB7C5" opacity="0.6"/>
</svg>
